<svg xmlns="http://www.w3.org/2000/svg" xmlns:xlink="http://www.w3.org/1999/xlink" width="24" height="24" viewBox="0 0 24 24">
  <defs>
    <clipPath id="clip-path">
      <path id="Rectangle_23756" data-name="Rectangle 23756" d="M0,0H24V24H0Z" transform="translate(54 771)" fill="#191919" stroke="#d31148" stroke-width="1"/>
    </clipPath>
  </defs>
  <g id="Mask_Group_94" data-name="Mask Group 94" transform="translate(-54 -771)" clip-path="url(#clip-path)">
    <path id="Path_62895" data-name="Path 62895" d="M2682.66-1760.48a2.329,2.329,0,0,0,2.329-2.329,2.329,2.329,0,0,0-2.329-2.329,2.329,2.329,0,0,0-2.329,2.329A2.329,2.329,0,0,0,2682.66-1760.48Zm0,1.863a4.193,4.193,0,0,1-3.631-2.1,4.192,4.192,0,0,1,0-4.193,4.194,4.194,0,0,1,3.632-2.1,4.193,4.193,0,0,1,4.193,4.193,4.193,4.193,0,0,1-4.194,4.193Zm9.783,1.864a1.862,1.862,0,0,0,1.318-.546,1.863,1.863,0,0,0,.546-1.318,1.863,1.863,0,0,0-1.864-1.863,1.863,1.863,0,0,0-1.863,1.863,1.863,1.863,0,0,0,1.863,1.864Zm0,1.864a3.727,3.727,0,0,1-3.727-3.727,3.727,3.727,0,0,1,3.727-3.727,3.727,3.727,0,0,1,3.727,3.728,3.727,3.727,0,0,1-3.727,3.727Zm2.329,5.59v-.466a2.329,2.329,0,0,0-2.329-2.329,2.329,2.329,0,0,0-2.329,2.329v.466h-1.864v-.466a4.193,4.193,0,0,1,2.1-3.631,4.192,4.192,0,0,1,4.193,0,4.193,4.193,0,0,1,2.1,3.631v.466Zm-9.317,0v-3.727a2.8,2.8,0,0,0-2.8-2.8,2.8,2.8,0,0,0-2.8,2.8v3.727H2678v-3.727a4.659,4.659,0,0,1,4.659-4.659,4.659,4.659,0,0,1,4.659,4.659v3.727Z" transform="translate(-2621.317 2541.148)" fill="#191919" stroke="#fff" stroke-width="0.2"/>
  </g>
</svg>
