<svg id="Group_17" data-name="Group 17" xmlns="http://www.w3.org/2000/svg" xmlns:xlink="http://www.w3.org/1999/xlink" width="24" height="24" viewBox="0 0 24 24">
  <defs>
    <clipPath id="clip-path">
      <path id="Path_951" data-name="Path 951" d="M512-1786a1,1,0,0,1-1,1H497a1,1,0,0,1-1-1v-9h-3l10.327-9.388a1,1,0,0,1,1.346,0L515-1795h-3Zm-9-7v6h2v-6Z" transform="translate(-493 1804.648)" fill="#d31148"/>
    </clipPath>
    <clipPath id="clip-path-2">
      <path id="Path_950" data-name="Path 950" d="M-200,200H3544V-2310H-200Z" transform="translate(200 2310)" fill="#d31148"/>
    </clipPath>
  </defs>
  <path id="Rectangle_18" data-name="Rectangle 18" d="M0,0H24V24H0Z" fill="#fff"/>
  <g id="Group_634" data-name="Group 634" transform="translate(1 2.552)" clip-path="url(#clip-path)">
    <g id="Group_633" data-name="Group 633" transform="translate(-693 -505.352)" clip-path="url(#clip-path-2)">
      <path id="Path_949" data-name="Path 949" d="M488-1809.65h32V-1780H488Z" transform="translate(200 2310)" fill="#d31148"/>
    </g>
  </g>
</svg>
